<svg xmlns="http://www.w3.org/2000/svg" viewBox="0 0 96 96" role="img" aria-label="AgroMotor">
  <defs>
    <linearGradient id="bg" x1="18" y1="10" x2="78" y2="88" gradientUnits="userSpaceOnUse">
      <stop offset="0" stop-color="#2f6f3e"/>
      <stop offset=".55" stop-color="#163d25"/>
      <stop offset="1" stop-color="#0b2015"/>
    </linearGradient>
    <linearGradient id="leafA" x1="21" y1="23" x2="70" y2="63" gradientUnits="userSpaceOnUse">
      <stop offset="0" stop-color="#dfe96f"/>
      <stop offset="1" stop-color="#51b36d"/>
    </linearGradient>
    <linearGradient id="leafB" x1="47" y1="20" x2="77" y2="61" gradientUnits="userSpaceOnUse">
      <stop offset="0" stop-color="#f0d37b"/>
      <stop offset="1" stop-color="#73c977"/>
    </linearGradient>
  </defs>
  <rect width="96" height="96" rx="21" fill="url(#bg)"/>
  <path d="M48 68c0-12 0-24 1-36" fill="none" stroke="#e8d28a" stroke-width="6" stroke-linecap="round"/>
  <path d="M47 42C35 25 18 25 14 30c-4 7 7 21 24 20 6 0 10-2 13-4-1-1-2-2-4-4Z" fill="url(#leafA)"/>
  <path d="M52 39c8-18 26-21 31-15 5 7-4 24-22 27-6 1-11 0-15-2 1-3 3-7 6-10Z" fill="url(#leafB)"/>
  <path d="M29 72c7 4 29 5 39 0" fill="none" stroke="#d7b56d" stroke-width="5" stroke-linecap="round" opacity=".95"/>
</svg>
